<svg width="20" height="20" viewBox="0 0 20 20" fill="none" xmlns="http://www.w3.org/2000/svg">
<path d="M9.90236 6.28281C7.90647 6.28281 6.28271 7.90656 6.28271 9.90245C6.28271 11.8983 7.90647 13.5221 9.90236 13.5221C11.8983 13.5221 13.522 11.8983 13.522 9.90245C13.522 7.90656 11.8983 6.28281 9.90236 6.28281ZM9.90236 12.9351C8.23008 12.9351 6.86968 11.5747 6.86968 9.90245C6.86968 8.23018 8.23008 6.86978 9.90236 6.86978C11.5746 6.86978 12.935 8.23018 12.935 9.90245C12.935 11.5747 11.5746 12.9351 9.90236 12.9351Z" fill="#828282" stroke="#828282" stroke-width="0.75"/>
<path d="M18.7507 8.43514L16.4091 8.08081C16.2804 7.64684 16.1064 7.2254 15.8904 6.82371L17.2945 4.91939C17.3806 4.80258 17.3684 4.64038 17.2659 4.53766L15.4627 2.73469C15.36 2.63217 15.1978 2.61984 15.081 2.70593L13.1827 4.10526C12.7793 3.88613 12.3551 3.70965 11.9176 3.57875L11.5653 1.24966C11.5435 1.10605 11.4203 1 11.2751 1H8.7253C8.58012 1 8.45686 1.10605 8.43514 1.24966L8.08276 3.57875C7.64527 3.70965 7.22109 3.88632 6.81765 4.10526L4.91939 2.70593C4.80258 2.61984 4.64038 2.63197 4.53766 2.73469L2.73469 4.53766C2.63217 4.64019 2.61984 4.80258 2.70593 4.91939L4.10996 6.82371C3.89395 7.2254 3.72002 7.64684 3.59127 8.08081L1.24966 8.43514C1.10605 8.45686 1 8.58012 1 8.7253V11.2751C1 11.4203 1.10605 11.5435 1.24946 11.5653L3.60262 11.9213C3.73273 12.3506 3.90628 12.7664 4.12052 13.162L2.70573 15.081C2.61964 15.1978 2.63197 15.36 2.73449 15.4627L4.53747 17.2657C4.63999 17.3684 4.80239 17.3806 4.91919 17.2945L6.84445 15.8752C7.23811 16.0865 7.65134 16.2575 8.07709 16.3852L8.43494 18.7507C8.45666 18.8943 8.57993 19.0004 8.7251 19.0004H11.2749C11.4201 19.0004 11.5433 18.8943 11.5651 18.7507L11.9229 16.3852C12.3487 16.2575 12.7619 16.0865 13.1555 15.8752L15.0808 17.2945C15.1976 17.3806 15.3598 17.3682 15.4625 17.2657L17.2657 15.4627C17.3682 15.3602 17.3806 15.1978 17.2943 15.081L15.8795 13.162C16.0939 12.7664 16.2675 12.3506 16.3974 11.9213L18.7505 11.5653C18.894 11.5435 19 11.4203 19 11.2751V8.7253C19.0002 8.58032 18.8941 8.45686 18.7507 8.43514ZM18.4132 11.0227L16.1235 11.3692C16.0084 11.3866 15.9145 11.4704 15.884 11.5825C15.7462 12.0902 15.542 12.5793 15.2769 13.0366C15.2182 13.1377 15.225 13.2639 15.2945 13.3581L16.6719 15.2264L15.2258 16.6725L13.3518 15.2909C13.2579 15.2219 13.1323 15.2146 13.0315 15.2727C12.5754 15.5347 12.0888 15.7363 11.5846 15.8715C11.4721 15.9018 11.388 15.9957 11.3706 16.1111L11.0223 18.4138H8.9773L8.62903 16.1111C8.61162 15.9959 8.52749 15.9018 8.41499 15.8715C7.91078 15.7363 7.42418 15.5347 6.96811 15.2727C6.86735 15.2148 6.74154 15.2221 6.64782 15.2909L4.77382 16.6725L3.32772 15.2264L4.70515 13.3581C4.77441 13.2639 4.78145 13.1377 4.72275 13.0366C4.45764 12.5795 4.25337 12.0902 4.11563 11.5825C4.08511 11.4702 3.9912 11.3866 3.87615 11.3692L1.58638 11.0227V8.97769L3.86578 8.63295C3.98141 8.61553 4.07572 8.53101 4.10565 8.41792C4.24124 7.90608 4.44512 7.41146 4.71199 6.94776C4.7701 6.8468 4.76286 6.72099 4.6938 6.62727L3.32772 4.77421L4.77382 3.32812L6.6214 4.69008C6.71552 4.75934 6.84171 4.76639 6.94306 4.70749C7.40775 4.43749 7.90491 4.23068 8.42027 4.09274C8.53297 4.06261 8.6171 3.9685 8.63451 3.85306L8.9773 1.58677H11.0223L11.3651 3.85306C11.3825 3.9685 11.4666 4.06261 11.5793 4.09274C12.0947 4.23068 12.5917 4.43749 13.0565 4.70749C13.1577 4.76658 13.2839 4.75934 13.3782 4.69008L15.2258 3.32812L16.6719 4.77421L15.3058 6.62727C15.2367 6.72099 15.2295 6.8468 15.2876 6.94776C15.5543 7.41146 15.7584 7.90608 15.894 8.41792C15.9239 8.53101 16.0182 8.61534 16.1338 8.63295L18.4132 8.97769V11.0227Z" fill="#828282" stroke="#828282" stroke-width="0.75"/>
</svg>
