<svg width="20" height="20" viewBox="0 0 20 20" fill="none" xmlns="http://www.w3.org/2000/svg">
<path d="M10 20C15.5228 20 20 15.5228 20 10C20 4.47715 15.5228 0 10 0C4.47715 0 0 4.47715 0 10C0 15.5228 4.47715 20 10 20Z" fill="#FDD202"/>
<path d="M5.43333 9.95334V3.99334C5.43333 3.84667 5.48666 3.72001 5.59333 3.61334C5.7 3.50667 5.82666 3.45334 5.97333 3.45334H11.3333C12.9467 3.45334 14.2 3.83334 15.0933 4.59334C15.9867 5.35334 16.4333 6.46667 16.4333 7.93334C16.4333 9.40001 15.9867 10.52 15.0933 11.2933C14.2 12.0667 12.9467 12.4533 11.3333 12.4533H8.13333V16.9133C8.13333 17.06 8.08 17.1867 7.97333 17.2933C7.86666 17.4 7.74 17.4533 7.59333 17.4533H5.97333C5.82666 17.4533 5.7 17.4 5.59333 17.2933C5.48666 17.1867 5.43333 17.06 5.43333 16.9133V12.4533H3.85333C3.56 12.4533 3.41333 12.3067 3.41333 12.0133V10.3933C3.41333 10.1 3.56 9.95334 3.85333 9.95334H5.43333ZM8.13333 9.95334H11.2333C11.9933 9.95334 12.6 9.80001 13.0533 9.50667C13.5067 9.20667 13.7333 8.68667 13.7333 7.94001C13.7333 7.19334 13.5067 6.67334 13.0533 6.38667C12.6 6.10001 11.9933 5.95334 11.2333 5.95334H8.13333V9.95334Z" fill="black"/>
</svg>
