<svg width="17" height="17" viewBox="0 0 17 17" fill="none" xmlns="http://www.w3.org/2000/svg">
<path d="M12.0103 12.2893C11.9392 12.2893 11.8681 12.2622 11.8139 12.2079L4.84454 5.23715C4.73607 5.12867 4.73607 4.95291 4.84454 4.84444C4.95301 4.73597 5.12877 4.73597 5.23705 4.84444L12.2062 11.8153C12.3147 11.9238 12.3147 12.0996 12.2062 12.2081C12.1523 12.262 12.0812 12.2893 12.0103 12.2893Z" fill="#A1A1A1" stroke="#828282" stroke-width="0.75"/>
<path d="M5.04089 12.2893C4.96978 12.2893 4.89887 12.2622 4.84454 12.2081C4.73607 12.0996 4.73607 11.9238 4.84454 11.8153L11.8154 4.84444C11.9239 4.73597 12.0995 4.73597 12.208 4.84444C12.3164 4.95291 12.3164 5.12867 12.208 5.23715L5.23705 12.2081C5.18291 12.262 5.112 12.2893 5.04089 12.2893Z" fill="#A1A1A1" stroke="#828282" stroke-width="0.75"/>
<path d="M8.5009 16C4.36482 16 1 12.6359 1 8.5009C1 4.36497 4.36482 1 8.5009 1C12.6356 1 15.9994 4.36497 15.9994 8.5009C15.9994 12.6358 12.6356 16 8.5009 16ZM8.5009 1.43678C4.60571 1.43678 1.43693 4.60571 1.43693 8.50075C1.43693 12.3949 4.60586 15.5629 8.5009 15.5629C12.3947 15.5629 15.5625 12.3947 15.5625 8.50075C15.5626 4.60571 12.3947 1.43678 8.5009 1.43678Z" fill="#A1A1A1" stroke="#828282" stroke-width="0.75"/>
</svg>
