<svg width="19" height="19" viewBox="0 0 19 19" fill="none" xmlns="http://www.w3.org/2000/svg">
<path d="M18.4122 1.08293C18.374 1.04732 18.3294 1.02223 18.2817 1.00953C18.234 0.996819 18.1845 0.996825 18.1368 1.00954L9.46212 3.28717C9.4426 3.2943 9.42372 3.30363 9.40574 3.31501H9.37972L0.921884 1.05256C0.876342 1.04199 0.829388 1.04291 0.784177 1.05527C0.738967 1.06764 0.696549 1.09115 0.659774 1.12423C0.622999 1.15732 0.59272 1.19921 0.570972 1.24708C0.549225 1.29496 0.536513 1.34771 0.533691 1.4018V14.5387C0.533877 14.6197 0.556293 14.6986 0.597658 14.7637C0.639023 14.8288 0.697164 14.8768 0.763571 14.9006L9.20839 17.9602C9.26904 17.9828 9.33424 17.9828 9.3949 17.9602C9.43035 17.9817 9.46912 17.9949 9.50896 17.9988C9.5488 18.0027 9.5889 17.9973 9.62694 17.9829L18.3016 14.9157C18.3674 14.8928 18.4253 14.8462 18.4669 14.7825C18.5086 14.7189 18.532 14.6415 18.5337 14.5614V1.37902C18.5337 1.32221 18.5228 1.26611 18.5018 1.21487C18.4808 1.16362 18.4502 1.11853 18.4122 1.08293ZM1.18429 1.87757L9.20839 4.02614V17.1655L1.18429 14.2603V1.87757ZM17.8831 14.278L9.85899 17.1099V3.95021L17.8831 1.85226V14.278Z" fill="#828282" stroke="#828282" stroke-width="0.5"/>
<path d="M11.1928 7.76152C11.2236 7.76152 11.2543 7.75641 11.2839 7.74634L16.5147 5.99003C16.5942 5.95891 16.6603 5.89317 16.6993 5.80653C16.7383 5.71989 16.747 5.61904 16.7238 5.52502C16.7006 5.431 16.6472 5.35107 16.5747 5.30192C16.5022 5.25276 16.4162 5.23817 16.3347 5.26119L11.1039 7.0175C11.0289 7.04302 10.9642 7.09918 10.9218 7.17572C10.8794 7.25226 10.862 7.34407 10.8727 7.43436C10.8835 7.52465 10.9218 7.60739 10.9806 7.66746C11.0393 7.72753 11.1147 7.76092 11.1928 7.76152Z" fill="#828282" stroke="#828282" stroke-width="0.5"/>
<path d="M11.1928 10.0542C11.2236 10.0542 11.2543 10.0491 11.2839 10.039L16.5147 8.28274C16.5942 8.25162 16.6603 8.18588 16.6993 8.09924C16.7383 8.0126 16.747 7.91175 16.7238 7.81773C16.7006 7.72371 16.6472 7.64378 16.5747 7.59463C16.5022 7.54547 16.4162 7.53088 16.3347 7.5539L11.1039 9.30768C11.0289 9.33319 10.9642 9.38936 10.9218 9.4659C10.8794 9.54244 10.862 9.63424 10.8727 9.72454C10.8835 9.81483 10.9218 9.89757 10.9806 9.95764C11.0393 10.0177 11.1147 10.0511 11.1928 10.0517V10.0542Z" fill="#828282" stroke="#828282" stroke-width="0.5"/>
<path d="M11.1928 12.3447C11.2236 12.3447 11.2543 12.3396 11.2839 12.3295L16.5147 10.5732C16.5942 10.5421 16.6603 10.4764 16.6993 10.3897C16.7383 10.3031 16.747 10.2022 16.7238 10.1082C16.7006 10.0142 16.6472 9.93426 16.5747 9.88511C16.5022 9.83595 16.4162 9.82136 16.3347 9.84438L11.1039 11.6007C11.0289 11.6262 10.9642 11.6824 10.9218 11.7589C10.8794 11.8355 10.862 11.9273 10.8727 12.0175C10.8835 12.1078 10.9218 12.1906 10.9806 12.2507C11.0393 12.3107 11.1147 12.3441 11.1928 12.3447Z" fill="#828282" stroke="#828282" stroke-width="0.5"/>
</svg>
