<svg width="19" height="20" viewBox="0 0 19 20" fill="none" xmlns="http://www.w3.org/2000/svg">
<path d="M17.6622 1H1.36486C1.2681 1 1.17529 1.03844 1.10687 1.10687C1.03844 1.17529 1 1.2681 1 1.36486V9.39189C1 9.48866 1.03844 9.58147 1.10687 9.64989C1.17529 9.71832 1.2681 9.75676 1.36486 9.75676H3.67568V16.6892C3.67568 16.786 3.71412 16.8788 3.78254 16.9472C3.85097 17.0156 3.94377 17.0541 4.04054 17.0541H5.86486V18.6351C5.86486 18.7319 5.90331 18.8247 5.97173 18.8931C6.04016 18.9616 6.13296 19 6.22973 19H14.9865C15.0833 19 15.1761 18.9616 15.2445 18.8931C15.3129 18.8247 15.3514 18.7319 15.3514 18.6351V9.75676H17.6622C17.7589 9.75676 17.8517 9.71832 17.9202 9.64989C17.9886 9.58147 18.027 9.48866 18.027 9.39189V1.36486C18.027 1.2681 17.9886 1.17529 17.9202 1.10687C17.8517 1.03844 17.7589 1 17.6622 1ZM1.72973 9.02703V1.72973H3.67568V9.02703H1.72973ZM4.40541 1.72973H12.4324V16.3243H4.40541V1.72973ZM14.6216 18.2703H6.59459V17.0541H12.7973C12.8941 17.0541 12.9869 17.0156 13.0553 16.9472C13.1237 16.8788 13.1622 16.786 13.1622 16.6892V3.67568H14.6216V18.2703ZM17.2973 9.02703H15.3514V3.31081C15.3514 3.21404 15.3129 3.12124 15.2445 3.05281C15.1761 2.98439 15.0833 2.94595 14.9865 2.94595H13.1622V1.72973H17.2973V9.02703Z" fill="#00F1FC" stroke="#00F1FC" stroke-width="0.5"/>
<path d="M7.08129 10.3089C7.08129 10.2122 7.04285 10.1193 6.97443 10.0509C6.906 9.98249 6.8132 9.94405 6.71643 9.94405C6.61966 9.94405 6.52685 9.98249 6.45843 10.0509C6.39 10.1193 6.35156 10.2122 6.35156 10.3089C6.35156 11.1773 7.08129 11.8997 8.05427 12.0481V12.5541C8.05427 12.6508 8.09271 12.7436 8.16113 12.8121C8.22956 12.8805 8.32236 12.9189 8.41913 12.9189C8.5159 12.9189 8.6087 12.8805 8.67713 12.8121C8.74555 12.7436 8.78399 12.6508 8.78399 12.5541V12.0481C9.75697 11.8997 10.4867 11.1773 10.4867 10.3089C10.4867 9.44054 9.75697 8.71811 8.78399 8.56973V6.50459C9.34345 6.62865 9.75697 7.02757 9.75697 7.50432C9.75697 7.60109 9.79541 7.6939 9.86383 7.76232C9.93226 7.83075 10.0251 7.86919 10.1218 7.86919C10.2186 7.86919 10.3114 7.83075 10.3798 7.76232C10.4483 7.6939 10.4867 7.60109 10.4867 7.50432C10.4867 6.63595 9.75697 5.91351 8.78399 5.76513V5.25676C8.78399 5.15999 8.74555 5.06718 8.67713 4.99876C8.6087 4.93033 8.5159 4.89189 8.41913 4.89189C8.32236 4.89189 8.22956 4.93033 8.16113 4.99876C8.09271 5.06718 8.05427 5.15999 8.05427 5.25676V5.7627C7.08129 5.91108 6.35156 6.63351 6.35156 7.50189C6.35156 8.37027 7.08129 9.0927 8.05427 9.23865V11.3062C7.49481 11.1822 7.08129 10.7832 7.08129 10.3089ZM9.75697 10.3089C9.75697 10.7954 9.34589 11.1846 8.78399 11.3086V9.30919C9.34589 9.43324 9.75697 9.83459 9.75697 10.3089ZM7.08129 7.50432C7.08129 7.01784 7.49237 6.62865 8.05427 6.50459V8.49919C7.49237 8.37513 7.08129 7.97622 7.08129 7.50189V7.50432Z" fill="#00F1FC" stroke="#00F1FC" stroke-width="0.5"/>
</svg>
