<svg width="21" height="18" viewBox="0 0 21 18" fill="none" xmlns="http://www.w3.org/2000/svg">
<circle cx="10.5" cy="9" r="8.5" stroke="#F4B746"/>
<path d="M3.64849 13L5.21049 5.168H8.33449L8.12549 6.213H6.16749L5.70549 8.534H7.38849L7.17949 9.579H5.49649L4.81449 13H3.64849ZM8.0393 10.987L9.2053 5.168H10.3713L9.1833 11.086C9.1613 11.196 9.1503 11.3097 9.1503 11.427C9.1503 11.8377 9.3483 12.043 9.7443 12.043C9.9643 12.043 10.155 11.966 10.3163 11.812C10.4776 11.6507 10.584 11.4307 10.6353 11.152L11.8233 5.168H12.9893L11.8013 11.163C11.6766 11.7863 11.4236 12.2667 11.0423 12.604C10.6903 12.9267 10.2063 13.088 9.5903 13.088C9.0623 13.088 8.65163 12.9303 8.3583 12.615C8.10896 12.3583 7.9843 12.0027 7.9843 11.548C7.9843 11.3353 8.00263 11.1483 8.0393 10.987ZM13.4545 13L14.8075 6.213H13.5645L13.7735 5.168H17.4255L17.2165 6.213H15.9735L14.6205 13H13.4545Z" fill="#F4B746"/>
</svg>
